<svg width="151" height="28" viewBox="0 0 151 28" fill="none" xmlns="http://www.w3.org/2000/svg">
<path d="M2.40006 0.0950623C2.94754 0.0950623 3.42593 0.29371 3.82298 0.691006C4.21755 1.0834 4.41976 1.56407 4.42223 2.11588C4.42223 2.66032 4.21755 3.13609 3.82298 3.53094C3.42348 3.92823 2.94754 4.12688 2.40006 4.12688C1.84272 4.12688 1.36184 3.92578 0.969748 3.52848C0.580111 3.13609 0.382812 2.66032 0.382812 2.11833C0.382812 1.56653 0.580111 1.08585 0.969748 0.693459C1.35938 0.296163 1.84272 0.0950623 2.40006 0.0950623Z" fill="#1C3B71"/>
<path d="M90.2049 0.199341C89.675 0.199341 89.2188 0.390633 88.8464 0.765855C88.4764 1.14108 88.2891 1.59479 88.2891 2.1196C88.2891 2.63217 88.4764 3.08587 88.8464 3.4611C89.2188 3.83877 89.675 4.0276 90.2049 4.0276C90.7231 4.0276 91.1793 3.83632 91.554 3.46354C91.9311 3.08832 92.1208 2.63707 92.1208 2.1196C92.1208 1.59233 91.9287 1.13617 91.554 0.763403C91.1738 0.388178 90.7231 0.199341 90.2049 0.199341Z" fill="#1C3B71"/>
<path d="M76.8398 0.749878H79.4049V22.1132H76.8398V0.749878Z" fill="#1C3B71"/>
<path fill-rule="evenodd" clip-rule="evenodd" d="M67.501 6.10385C68.9388 6.10385 70.2458 6.43248 71.3875 7.08482C72.5319 7.73717 73.4393 8.66668 74.083 9.83892C74.7241 11.0088 75.0497 12.36 75.0497 13.856C75.0497 14.2386 74.9239 14.5672 74.6773 14.8272C74.4258 15.0896 74.1002 15.2294 73.7303 15.2294H62.2237C62.3544 16.0289 62.6355 16.7548 63.0547 17.3949C63.5504 18.1503 64.2088 18.7437 65.0054 19.1632C65.8068 19.585 66.7144 19.7983 67.7058 19.7983C68.1965 19.7983 68.7119 19.7124 69.2371 19.5481C69.7624 19.3838 70.263 19.141 70.7266 18.8296C70.9684 18.6751 71.2396 18.5966 71.538 18.5966C71.755 18.5966 71.9646 18.6432 72.157 18.7315C72.3617 18.8271 72.5244 18.9571 72.6452 19.1214L73.3037 20.0607L73.0349 20.3035C72.3271 20.9362 71.4936 21.4439 70.5565 21.8117C69.6194 22.1796 68.6601 22.366 67.7082 22.366C66.1718 22.366 64.7736 22.0153 63.5529 21.3188C62.3297 20.6199 61.3605 19.6364 60.6701 18.3857C59.9845 17.1447 59.6367 15.7248 59.6367 14.1699C59.6367 12.6421 59.9771 11.2491 60.6503 10.0326C61.3235 8.81133 62.2705 7.83769 63.4641 7.14614C64.6552 6.45455 66.014 6.10385 67.501 6.10385ZM62.6848 12.7499H72.4702C72.3419 12.0241 72.0854 11.3717 71.7057 10.8052C71.2495 10.1258 70.6527 9.59125 69.935 9.22091C69.2125 8.8481 68.3938 8.65685 67.501 8.65685C66.5615 8.65685 65.6934 8.86528 64.924 9.27734C64.1546 9.68684 63.5183 10.2681 63.0374 11.0014C62.6823 11.5385 62.4333 12.1369 62.2878 12.7843C62.4111 12.7623 62.5442 12.7499 62.6848 12.7499Z" fill="#1C3B71"/>
<path d="M85.4399 0.749878H82.875V22.1132H85.4399V0.749878Z" fill="#1C3B71"/>
<path d="M88.9141 6.34161H91.479V22.1157H88.9141V6.34161Z" fill="#1C3B71"/>
<path fill-rule="evenodd" clip-rule="evenodd" d="M105.019 6.53092C105.527 6.45489 106.045 6.41566 106.557 6.41566C107.325 6.41566 107.904 6.48433 108.321 6.62657L108.599 6.72221V7.38683C108.612 7.77921 108.511 8.14218 108.299 8.45362C108.126 8.70872 107.786 9.00298 107.142 8.95151L107.097 8.94656C107.064 8.93951 106.992 8.9286 106.882 8.91204L106.738 8.89021C106.568 8.86568 106.378 8.85337 106.171 8.85089C106.41 9.19918 106.607 9.57439 106.763 9.96927C107.014 10.6093 107.142 11.2936 107.142 12.0023C107.142 13.1304 106.854 14.1826 106.279 15.1341C105.709 16.0783 104.921 16.8386 103.939 17.3928C102.955 17.9446 101.865 18.2242 100.696 18.2242C99.9389 18.2242 99.2036 18.104 98.5137 17.8686C97.9336 17.6675 97.3912 17.3977 96.9004 17.0592C96.7727 17.1844 96.6692 17.3192 96.5924 17.459C96.4811 17.6675 96.427 17.871 96.427 18.0819C96.427 18.4449 96.5649 18.7024 96.8565 18.8888C97.1968 19.1022 97.6749 19.1978 98.2793 19.1733L101.998 19.0237H102.001C103.821 19.0237 105.241 19.3866 106.232 20.1028C107.265 20.8483 107.788 21.9225 107.788 23.2909C107.788 24.7943 107.152 25.9715 105.902 26.7857C104.706 27.5631 102.995 27.9579 100.817 27.9579C99.6033 27.9579 98.3828 27.8795 97.1795 27.725C95.9786 27.568 94.8733 27.3693 93.8918 27.129L93.5391 27.0432L93.6402 26.1799C93.6778 25.7728 93.8134 25.4368 94.047 25.1916C94.2916 24.9341 94.6295 24.7968 95.0167 24.7968C95.0951 24.7968 95.1994 24.809 95.3397 24.8335C95.5639 24.8605 96.0005 24.9267 96.6167 25.0248C97.4084 25.1523 98.0865 25.248 98.6344 25.3118C99.1667 25.3731 99.717 25.4049 100.262 25.4049H100.963C102.388 25.4049 103.483 25.2014 104.217 24.8016C104.883 24.4386 105.207 23.9482 105.207 23.2909C105.207 22.7318 104.972 22.3394 104.471 22.05C103.912 21.7263 103.058 21.562 101.934 21.562L101.453 21.5742L98.2221 21.6944C97.3888 21.7165 96.6394 21.5939 95.9935 21.3314C95.3272 21.0592 94.7972 20.6472 94.4194 20.1101C94.0376 19.5706 93.8448 18.9207 93.8448 18.185C93.8448 17.5865 94.0055 17.0201 94.3214 16.4976C94.5628 16.1004 94.8811 15.7374 95.2684 15.4186C94.9893 15.0066 94.7674 14.5603 94.6044 14.082C94.3998 13.4762 94.294 12.8362 94.294 12.1789C94.294 11.0679 94.5824 10.0354 95.1523 9.10847C95.7222 8.18629 96.5038 7.44813 97.475 6.91595C98.4471 6.38377 99.532 6.11646 100.698 6.11646C101.833 6.11646 102.888 6.35925 103.833 6.83257C104.183 6.70014 104.58 6.59714 105.019 6.53092ZM104.065 13.9594C104.402 13.4223 104.568 12.8459 104.568 12.196C104.568 11.5339 104.402 10.9502 104.065 10.4083C103.727 9.86873 103.258 9.43709 102.668 9.1207C102.074 8.8043 101.413 8.64247 100.701 8.64247C100.001 8.64247 99.347 8.8019 98.7575 9.1207C98.1735 9.43462 97.7047 9.86873 97.3669 10.4083C97.0267 10.9502 96.8612 11.5364 96.8612 12.196C96.8612 12.8459 97.029 13.4223 97.3669 13.9594C97.7071 14.5014 98.1633 14.9183 98.7552 15.2346C99.3423 15.5485 99.9977 15.7055 100.701 15.7055C101.416 15.7055 102.08 15.5485 102.672 15.2346C103.266 14.9183 103.722 14.5014 104.065 13.9594Z" fill="#1C3B71"/>
<path fill-rule="evenodd" clip-rule="evenodd" d="M121.03 7.08482C119.888 6.43248 118.578 6.10385 117.143 6.10385C115.656 6.10385 114.297 6.45455 113.106 7.14614C111.913 7.83769 110.966 8.81133 110.292 10.0326C109.621 11.2491 109.281 12.6421 109.281 14.1699C109.281 15.7248 109.629 17.1447 110.314 18.3857C111.005 19.6364 111.974 20.6199 113.198 21.3188C114.418 22.0153 115.817 22.366 117.351 22.366C118.302 22.366 119.262 22.1796 120.199 21.8117C121.135 21.4439 121.97 20.9362 122.677 20.3035L122.946 20.0607L122.285 19.1214C122.166 18.9571 122.004 18.8271 121.799 18.729C121.604 18.6407 121.397 18.5941 121.18 18.5941C120.881 18.5941 120.613 18.6726 120.366 18.8271C119.906 19.1386 119.402 19.3814 118.877 19.5457C118.352 19.71 117.838 19.7959 117.345 19.7959C116.354 19.7959 115.447 19.5825 114.645 19.1607C113.848 18.7413 113.19 18.1478 112.694 17.3925C112.273 16.7523 111.994 16.0264 111.863 15.2269H123.37C123.737 15.2269 124.066 15.0872 124.317 14.8247C124.563 14.5648 124.69 14.2362 124.69 13.8535C124.69 12.3576 124.364 11.0038 123.722 9.83645C123.082 8.66668 122.176 7.73717 121.03 7.08482ZM122.115 12.7499H112.329C112.189 12.7499 112.055 12.7623 111.932 12.7843C112.078 12.1369 112.327 11.5385 112.682 11.0014C113.163 10.2681 113.799 9.68684 114.569 9.27734C115.338 8.86528 116.206 8.65685 117.145 8.65685C118.038 8.65685 118.857 8.8481 119.579 9.22091C120.297 9.59125 120.894 10.1258 121.35 10.8052C121.73 11.3717 121.987 12.0241 122.115 12.7499Z" fill="#1C3B71"/>
<path d="M129.186 7.76341C130.364 6.72849 131.903 6.20612 133.793 6.20612C135.76 6.20612 137.435 6.8928 138.769 8.24904C140.105 9.6003 140.781 11.268 140.781 13.1981V22.147H138.142V13.1981C138.142 11.9767 137.721 10.9418 136.855 10.0368C136.002 9.14412 134.998 8.70761 133.788 8.70761C132.564 8.70761 131.511 9.14908 130.571 10.0589C129.639 10.9639 129.186 11.989 129.186 13.1981V22.147H126.547V6.547H129.186V7.76341Z" fill="#1C3B71"/>
<path d="M55.5109 18.6203C54.8253 17.9459 54.4924 17.1096 54.4924 16.0649V10.775H57.5602V8.2686H54.4924V0.879364H51.8537V8.2686H50.4258V10.77H51.8537V16.0625C51.8537 17.8208 52.4628 19.2874 53.6687 20.4254C54.8623 21.5535 56.3222 22.1249 58.0065 22.1249H58.8277V19.6259H58.0065C57.0151 19.6259 56.1988 19.2972 55.5109 18.6203Z" fill="#1C3B71"/>
<path d="M147.577 18.6203C148.265 19.2972 149.082 19.6259 150.07 19.6259H150.894V22.1249H150.073C148.386 22.1249 146.926 21.5535 145.735 20.4254C144.529 19.2874 143.92 17.8208 143.92 16.0625V10.77H142.492V8.2686H143.92V0.879364H146.559V8.2686H149.626V10.7725H146.559V16.0649C146.559 17.1096 146.891 17.9459 147.577 18.6203Z" fill="#1C3B71"/>
<path d="M3.77967 6.23801H1.00781V22.2157H3.77967V6.23801Z" fill="#1C3B71"/>
<path d="M19.3649 8.25015C18.0258 6.89394 16.3489 6.2048 14.3835 6.2048C12.4944 6.2048 10.9556 6.72717 9.7793 7.7621V6.5457H7.14062V22.1457H9.7793V13.1992C9.7793 11.9926 10.233 10.965 11.1678 10.0601C12.1098 9.15019 13.1603 8.70873 14.3835 8.70873C15.5943 8.70873 16.598 9.14532 17.4512 10.038C18.3168 10.9429 18.736 11.9779 18.736 13.1992V22.1481H21.3747V13.1992C21.3772 11.2667 20.7015 9.60389 19.3649 8.25015Z" fill="#1C3B71"/>
<path d="M26.8679 2.59685C28.0614 1.46873 29.5189 0.897308 31.2057 0.897308H32.0269V3.40125H31.2057C30.2143 3.40125 29.3981 3.72989 28.71 4.40675C28.0244 5.08363 27.6915 5.91747 27.6915 6.96221V8.83587H30.7593V11.3398H27.6915V22.1477H25.0528V11.3398H23.625V8.83587H25.0528V6.95975C25.0528 5.20135 25.6644 3.73479 26.8679 2.59685Z" fill="#1C3B71"/>
<path d="M39.9497 11.5349C40.4306 11.5349 40.8769 11.655 41.2937 11.8978C41.7129 12.1382 42.0458 12.4692 42.2949 12.891C42.5465 13.3129 42.6698 13.7641 42.6698 14.2497C42.6698 14.7378 42.5465 15.189 42.2949 15.6083C42.0458 16.0277 41.7105 16.3588 41.2937 16.6016C40.8769 16.8419 40.4281 16.9645 39.9497 16.9645C39.4491 16.9645 38.9904 16.8444 38.5736 16.6016C38.1569 16.3588 37.8264 16.0277 37.5823 15.6083C37.3382 15.1865 37.2148 14.7353 37.2148 14.2497C37.2148 13.7641 37.3382 13.3104 37.5823 12.891C37.8239 12.4717 38.1569 12.1406 38.5736 11.8978C38.9904 11.6575 39.4491 11.5349 39.9497 11.5349Z" fill="#1C3B71"/>
<path fill-rule="evenodd" clip-rule="evenodd" d="M45.7795 8.50387C44.1815 6.9147 42.2234 6.10785 39.962 6.10785C37.6982 6.10785 35.7352 6.91225 34.1274 8.50147C32.5194 10.0906 31.7031 12.006 31.7031 14.1862C31.7031 16.3615 32.5047 18.2916 34.0854 19.92C35.6735 21.5583 37.6044 22.3896 39.8215 22.3896H40.1026C42.3418 22.3896 44.2727 21.5632 45.8412 19.9347C47.3997 18.3162 48.1889 16.3885 48.1889 14.2034C48.1864 12.0109 47.3775 10.093 45.7795 8.50387ZM45.5452 14.2647C45.5452 15.8048 45.0101 17.0997 43.9077 18.2254C42.8103 19.3437 41.5305 19.8882 39.9892 19.8882C38.4454 19.8882 37.1458 19.3413 36.0163 18.218C34.8893 17.0948 34.3394 15.8073 34.3394 14.2794C34.3394 12.749 34.8893 11.4493 36.0213 10.3064C37.1507 9.16607 38.4429 8.60936 39.9719 8.60936C41.5008 8.60936 42.7832 9.15871 43.8905 10.2868C45.0051 11.4223 45.5452 12.7221 45.5452 14.2647Z" fill="#1C3B71"/>
</svg>
