<svg width="34" height="33" viewBox="0 0 34 33" fill="none" xmlns="http://www.w3.org/2000/svg">
<path d="M17.3758 10.8468C18.337 10.8468 19.2291 11.0868 20.0619 11.5721C20.8998 12.0525 21.5651 12.7141 22.063 13.5571C22.5658 14.4003 22.8122 15.302 22.8122 16.2725C22.8122 17.2479 22.5658 18.1497 22.063 18.9878C21.5651 19.826 20.8949 20.4877 20.0619 20.973C19.2291 21.4532 18.3321 21.6983 17.3758 21.6983C16.3753 21.6983 15.4587 21.4582 14.6257 20.973C13.7928 20.4877 13.1323 19.826 12.6445 18.9878C12.1566 18.1448 11.9102 17.243 11.9102 16.2725C11.9102 15.302 12.1566 14.3953 12.6445 13.5571C13.1275 12.719 13.7928 12.0573 14.6257 11.5721C15.4587 11.0918 16.3753 10.8468 17.3758 10.8468Z" fill="#1C3B71"/>
<path fill-rule="evenodd" clip-rule="evenodd" d="M29.0269 4.78858C25.8333 1.61255 21.92 0 17.4004 0C12.876 0 8.95291 1.60764 5.73949 4.78379C2.52592 7.95985 0.894531 11.7877 0.894531 16.1451C0.894531 20.4926 2.49646 24.35 5.65567 27.6045C8.82961 30.8786 12.6886 32.54 17.1195 32.54H17.6813C22.1566 32.54 26.0156 30.8884 29.1502 27.6339C32.2651 24.399 33.8423 20.5465 33.8423 16.1794C33.8373 11.7976 32.2206 7.96464 29.0269 4.78858ZM28.5588 16.3019C28.5588 19.3799 27.4892 21.9679 25.2862 24.2176C23.093 26.4526 20.5351 27.5408 17.4546 27.5408C14.3694 27.5408 11.772 26.4478 9.51472 24.2029C7.2623 21.958 6.16328 19.3849 6.16328 16.3313C6.16328 13.2728 7.2623 10.6751 9.52459 8.3911C11.7819 6.11203 14.3644 4.99941 17.4202 4.99941C20.4758 4.99941 23.0388 6.09734 25.2517 8.35196C27.4794 10.6213 28.5588 13.219 28.5588 16.3019Z" fill="#1C3B71"/>
</svg>
